<svg xmlns="http://www.w3.org/2000/svg" width="512" height="512" viewBox="0 0 512 512" version="1.1">
	<path d="M 236 20.689 C 234.075 20.892, 226.425 22.152, 219 23.488 C 176.766 31.089, 133.706 51.570, 101.172 79.529 C 64.611 110.950, 36.978 156.763, 26.607 203.152 C 22.049 223.542, 20.730 237.409, 21.298 259 C 22.262 295.657, 29.572 324.835, 46.477 359.500 C 72.834 413.548, 116.010 453.184, 172.684 475.360 C 234.226 499.440, 297.326 496.546, 356.965 466.908 C 395.793 447.612, 427.646 419.648, 451.481 383.932 C 472.249 352.810, 486.290 314.312, 490.079 278.096 C 491.553 264.012, 490.754 233.050, 488.593 220.500 C 475.927 146.950, 434.106 87.616, 369.134 51.018 C 332.408 30.330, 293.189 19.755, 254.699 20.160 C 246.339 20.248, 237.925 20.486, 236 20.689 M 232 34.512 C 213.180 36.833, 191.157 42.784, 184.927 47.233 L 182.500 48.965 185.183 48.033 C 187.087 47.371, 188.008 47.449, 188.354 48.300 C 188.703 49.159, 188.865 49.171, 188.921 48.344 C 188.965 47.702, 189.865 47.413, 190.942 47.695 C 192.009 47.974, 195.947 47.279, 199.692 46.151 C 220.259 39.953, 271.214 38.308, 294 43.106 C 304.841 45.389, 334.318 55.405, 348.500 61.624 C 350.700 62.589, 352.837 63.462, 353.250 63.564 C 353.663 63.666, 354.113 63.841, 354.250 63.952 C 354.387 64.062, 355.175 64.296, 356 64.471 C 359.814 65.281, 360.548 65.565, 361.235 66.500 C 361.664 67.085, 361.961 66.877, 361.948 66 C 361.912 63.427, 350.067 56.982, 326.500 46.709 C 299.991 35.155, 264.222 30.538, 232 34.512 M 225.928 66.530 C 188.912 72.301, 151.121 91.277, 123.666 117.878 C 97.480 143.251, 77.837 179.308, 71.054 214.456 C 61.609 263.402, 70.263 308.454, 96.648 347.689 C 111.740 370.132, 128.319 386.184, 153.037 402.287 C 161.849 408.028, 183.259 419, 185.648 419 C 186.765 419, 187 410.926, 187 372.635 C 187 326.587, 187.015 326.251, 189.168 323.514 C 192.815 318.877, 196.496 318, 212.315 318 L 226.693 318 227.402 293.844 C 228.159 268.032, 228.412 266.737, 233.661 261.864 C 240.034 255.947, 239.618 256, 279.950 256 C 313.084 256, 317 255.833, 317 254.417 C 317 252.214, 313.053 236.967, 311.948 234.903 C 311.370 233.822, 308.232 232.588, 303.271 231.490 C 298.997 230.545, 294.209 229.108, 292.630 228.298 C 290.007 226.951, 289.813 226.488, 290.380 222.912 C 290.721 220.761, 291.259 217.313, 291.577 215.250 L 292.153 211.500 284.586 207.657 L 277.019 203.813 272.369 207.907 C 269.811 210.158, 267.444 211.998, 267.109 211.996 C 266.774 211.994, 264.312 209.286, 261.639 205.978 L 256.778 199.963 259.579 197.731 C 261.119 196.504, 262.984 195.046, 263.722 194.490 C 264.783 193.691, 264.828 192.804, 263.934 190.240 C 262.627 186.492, 262.504 186.467, 255.880 188.634 C 245.876 191.906, 233.755 188.165, 228.536 180.195 C 218.257 164.497, 228.770 145.730, 247.981 145.484 L 254.462 145.401 255.213 140.998 C 256.004 136.365, 255.234 135.046, 251.719 135.015 C 250.739 135.007, 249.676 134.319, 249.357 133.487 C 248.447 131.117, 250.922 129, 254.602 129 C 257.520 129, 258.230 128.469, 260.029 124.943 C 261.167 122.712, 261.827 120.124, 261.494 119.193 C 261.162 118.262, 257.990 115.087, 254.445 112.139 C 250.900 109.190, 248 106.359, 248 105.848 C 248 104.178, 252.342 99, 253.743 99 C 254.495 99, 258.618 101.250, 262.905 104 C 267.192 106.750, 271.022 109, 271.417 109 C 272.937 109, 279 103.691, 279 102.360 C 279 101.588, 277.809 99.158, 276.354 96.958 C 274.898 94.759, 273.886 92.795, 274.104 92.594 C 275.670 91.152, 284.620 86, 285.559 86 C 286.202 86, 288.232 89.150, 290.070 93 C 291.909 96.850, 293.883 100, 294.457 100 C 295.031 100, 298.651 99.333, 302.500 98.517 C 311.562 96.598, 328.880 96.589, 336 98.500 C 344.079 100.668, 344.522 100.540, 346.459 95.467 C 348.700 89.599, 348.315 89.161, 335.589 83.108 C 317.442 74.475, 299.396 69.152, 279.136 66.455 C 265.944 64.699, 237.417 64.739, 225.928 66.530 M 363.177 104.751 L 361.219 107.502 365.953 112.651 L 370.688 117.800 374.094 115.715 C 375.967 114.568, 377.654 113.522, 377.842 113.390 C 378.992 112.582, 367.838 102, 365.836 102 C 365.451 102, 364.255 103.238, 363.177 104.751 M 305.634 108.586 C 291.550 111.995, 279.408 121.722, 273.374 134.427 C 264.971 152.121, 268.870 173.711, 283.024 187.863 C 292.848 197.685, 303.697 202.010, 318.460 201.988 C 333.054 201.967, 345.205 196.866, 354.449 186.882 C 379.216 160.131, 364.668 117.205, 327.897 108.537 C 320.090 106.697, 313.378 106.712, 305.634 108.586 M 308.103 117.547 C 292.420 120.949, 280.053 134.263, 276.987 151.046 C 274.150 166.574, 283.831 183.855, 299.780 191.734 C 307.073 195.337, 307.841 195.500, 317.504 195.500 C 327.163 195.500, 327.939 195.335, 335.197 191.747 C 344.653 187.074, 352.766 178.752, 356.124 170.285 C 359.631 161.440, 359.441 149.441, 355.671 141.750 C 349.704 129.575, 337.956 120.156, 325.426 117.502 C 317.179 115.755, 316.353 115.757, 308.103 117.547 M 305.882 128.321 C 292.029 133.501, 284.162 144.971, 285.241 158.417 C 286.118 169.339, 293.023 178.776, 303.852 183.851 C 308.503 186.031, 310.912 186.495, 317.500 186.480 C 324.250 186.464, 326.314 186.035, 330.713 183.733 C 342.257 177.690, 348.008 169.309, 347.990 158.554 C 347.972 147.479, 340.387 135.869, 329.500 130.252 C 323.445 127.128, 311.650 126.164, 305.882 128.321 M 380.025 128.975 C 377.062 131.938, 376.592 135.339, 378.570 139.506 C 381.878 146.476, 391.469 148.033, 395.957 142.328 C 399.056 138.388, 398.583 134.650, 394.467 130.533 C 391.477 127.544, 390.246 127, 386.467 127 C 383.353 127, 381.402 127.598, 380.025 128.975 M 408.500 151.525 C 404.830 154.527, 398.419 156.855, 390.644 158.009 C 387.424 158.487, 384.616 159.051, 384.405 159.262 C 384.193 159.473, 383.903 161.854, 383.760 164.552 L 383.500 169.458 387.851 170.979 L 392.201 172.500 391.714 176.837 C 391.036 182.868, 390.373 183.265, 382.974 182.073 C 375.749 180.910, 375.112 181.207, 372.519 186.959 L 370.728 190.929 375.480 195.231 L 380.231 199.533 375.561 205.266 C 372.992 208.420, 370.642 211, 370.338 211 C 370.035 211, 367.526 209.200, 364.763 207 C 361.999 204.800, 359.304 203, 358.774 203 C 358.243 203, 356.588 203.869, 355.097 204.931 C 353.605 205.993, 350.473 207.627, 348.136 208.562 C 345.799 209.497, 344.079 210.766, 344.315 211.381 C 344.550 211.997, 345.574 215.139, 346.590 218.364 C 348.437 224.227, 348.437 224.228, 346.292 225.965 C 345.112 226.920, 340.851 228.696, 336.823 229.911 C 325.051 233.461, 324.851 233.625, 322.356 241.830 C 321.136 245.842, 319.994 250.560, 319.819 252.313 L 319.500 255.500 347 255.500 C 376.926 255.500, 376.629 255.451, 383.916 261.583 C 389.941 266.652, 390.001 267.027, 389.993 299.700 C 389.987 326.692, 389.818 329.757, 388.190 332.225 C 385.551 336.227, 378.084 341.653, 373.500 342.900 C 371.168 343.535, 360.013 343.991, 346.750 343.994 L 324 344 324 346.214 C 324 347.432, 323.727 364.307, 323.393 383.714 C 322.683 424.982, 321.375 421.813, 336.027 414.325 C 346.891 408.771, 353.801 402.841, 359.046 394.568 C 361.162 391.231, 363.755 387.973, 364.807 387.328 C 366.083 386.547, 366.939 384.514, 367.375 381.228 C 368.222 374.844, 372.771 368.002, 379.926 362.350 C 387.286 356.536, 393.586 353.548, 404.500 350.698 L 413.500 348.347 420.711 334.924 C 439.971 299.073, 446.818 267.151, 442.957 231.211 C 441.621 218.774, 437.051 199.735, 432.410 187.267 C 426.588 171.629, 414.564 148.909, 412.177 149.036 C 411.805 149.056, 410.150 150.176, 408.500 151.525 M 240.646 161.452 C 234.635 167.023, 239.608 178, 248.143 178 C 253.917 178, 258.768 171.774, 257.499 165.993 C 256.068 159.478, 245.770 156.703, 240.646 161.452 M 98.881 177.503 C 95.991 179.074, 92.997 184.500, 93.006 188.151 C 93.026 196.680, 97.505 202, 104.666 202 C 107.814 202, 109.241 202.465, 109.691 203.636 C 110.684 206.226, 108.677 208.356, 103.395 210.317 C 100.703 211.316, 97.222 213.341, 95.661 214.817 C 89.970 220.194, 89.999 219.974, 90.007 257.700 C 90.014 296.834, 89.854 295.940, 97.696 300.687 L 101.500 302.990 152.300 302.995 C 207.805 303, 205.605 303.222, 211.500 297.025 L 214.500 293.871 215.269 259.685 C 215.692 240.883, 215.774 223.569, 215.451 221.208 C 214.429 213.726, 206.657 207, 199.032 207 C 196.512 207, 196 206.601, 196 204.640 C 196 202.509, 196.545 202.224, 201.603 201.702 C 207.531 201.090, 210.225 199.400, 212.602 194.802 C 215.455 189.286, 213.680 182.253, 208.385 178.088 C 205.971 176.189, 204.420 176, 191.266 176 L 176.802 176 173.933 179.072 C 172.355 180.761, 170.784 183.634, 170.442 185.455 C 169.913 188.279, 169.318 188.849, 166.411 189.321 C 164.535 189.625, 161.425 189.619, 159.500 189.306 C 156.287 188.785, 156 188.456, 156 185.292 C 156 182.817, 155.177 181.023, 153.077 178.923 L 150.154 176 125.827 176.040 C 106.741 176.071, 100.936 176.387, 98.881 177.503 M 103.250 184.662 C 101.167 185.503, 101.712 191.776, 103.973 192.986 C 105.223 193.655, 113.376 193.942, 126.223 193.771 L 146.500 193.500 146.819 189.602 C 147.019 187.159, 146.646 185.391, 145.819 184.867 C 144.428 183.985, 105.394 183.797, 103.250 184.662 M 178.667 184.667 C 177.736 185.597, 177.861 191.232, 178.846 192.784 C 179.449 193.736, 182.615 193.995, 191.069 193.784 C 202.393 193.502, 202.487 193.480, 203.784 190.769 C 204.751 188.749, 204.810 187.513, 204.010 186.019 C 203.020 184.169, 201.943 184, 191.131 184 C 184.643 184, 179.033 184.300, 178.667 184.667 M 314.046 209.762 C 309.018 213.833, 312.282 222, 318.936 222 C 322.112 222, 326 218.310, 326 215.296 C 326 209.816, 318.352 206.275, 314.046 209.762 M 119.635 218.322 C 117.911 220.149, 113.674 223.786, 110.219 226.404 C 106.765 229.022, 103.316 232.140, 102.555 233.332 C 101.490 235.002, 101.095 241.642, 100.836 262.212 C 100.456 292.407, 100.284 291.689, 108 292.135 C 110.475 292.278, 131.308 292.306, 154.295 292.197 L 196.091 292 198.545 289.545 L 201 287.091 201 254.496 C 201 220.341, 200.636 217.225, 196.455 215.621 C 195.565 215.280, 178.621 215, 158.803 215 L 122.770 215 119.635 218.322 M 174.200 220.200 C 172.378 222.022, 172.753 227.466, 174.829 229.345 C 177.353 231.630, 190.167 231.691, 192.429 229.429 C 194.430 227.427, 194.436 224.067, 192.443 221.223 C 191.063 219.251, 190.011 219, 183.143 219 C 178.454 219, 174.927 219.473, 174.200 220.200 M 139.667 231.959 C 125.506 232.443, 123.684 232.705, 122.417 234.441 C 120.551 236.998, 120.618 240.475, 122.571 242.429 C 123.882 243.739, 127.089 244, 141.883 244 C 158.354 244, 159.779 243.854, 161.811 241.961 C 163.015 240.840, 164 239.040, 164 237.961 C 164 235.956, 160.736 232, 159.082 232 C 158.577 232, 157.564 231.869, 156.832 231.709 C 156.099 231.548, 148.375 231.661, 139.667 231.959 M 177.356 236.370 C 174.217 239.070, 173.575 244.577, 176.050 247.561 C 178.256 250.222, 183.824 252.198, 187.091 251.480 C 190.556 250.719, 194 246.648, 194 243.315 C 194 240.170, 191.512 235.410, 189.455 234.621 C 185.746 233.198, 180.094 234.015, 177.356 236.370 M 139.848 253.751 C 130.271 253.984, 126.902 254.413, 125.986 255.516 C 124.274 257.580, 125.321 259.524, 129.701 262.412 C 133.184 264.709, 134.520 264.933, 145.761 265.104 C 156.331 265.265, 158.296 265.042, 160.011 263.490 C 162.273 261.443, 162.591 258.130, 160.750 255.803 C 159.130 253.756, 155.269 253.376, 139.848 253.751 M 189.067 258.874 C 188.480 259.971, 188 261.761, 188 262.853 C 188 264.012, 186.649 265.673, 184.750 266.848 C 177.158 271.547, 174.440 276.644, 175.613 283.982 C 176.192 287.600, 176.544 288, 179.153 288 C 182.444 288, 184 285.256, 184 279.452 C 184 276.372, 184.477 275.792, 188.813 273.595 C 195.403 270.255, 196.163 269.085, 195.805 262.831 C 195.522 257.882, 195.308 257.478, 192.817 257.190 C 190.951 256.974, 189.810 257.487, 189.067 258.874 M 104.218 275.750 L 104.500 287.500 120.750 287.775 C 129.688 287.926, 137.032 287.701, 137.070 287.275 C 137.109 286.849, 137.364 284.363, 137.637 281.750 L 138.133 277 122.125 277 C 112.532 277, 105.870 276.599, 105.500 276 C 105.097 275.349, 110.656 275, 121.441 275 C 130.830 275, 138 274.602, 138 274.082 C 138 270.200, 137.183 270, 121.334 270 C 110.633 270, 106.085 269.672, 106.542 268.932 C 106.918 268.324, 109.633 267.979, 112.851 268.130 C 118.003 268.372, 118.528 268.202, 118.820 266.198 C 119.125 264.099, 118.798 264, 111.538 264 L 103.937 264 104.218 275.750 M 302.592 272.750 C 264.819 272.937, 248.282 273.351, 247.342 274.131 C 246.295 275, 246 280, 246 296.872 L 246 318.500 280.250 318.519 C 317.053 318.540, 317.624 318.613, 322.407 323.898 C 324.208 325.887, 325.283 326, 342.405 325.994 C 352.357 325.991, 362.192 325.519, 364.259 324.945 C 370.621 323.178, 370.932 321.984, 371.232 298.123 L 371.500 276.840 368.694 274.420 C 366.457 272.491, 364.937 272.049, 361.194 272.241 C 358.612 272.374, 332.241 272.603, 302.592 272.750 M 112.797 282.745 C 117.361 282.930, 124.561 282.929, 128.797 282.742 C 133.034 282.555, 129.300 282.404, 120.500 282.405 C 111.700 282.406, 108.234 282.559, 112.797 282.745 M 319.655 283.829 C 317.484 286.228, 317.555 289.287, 319.829 291.345 C 321.382 292.750, 324.259 293, 338.894 293 C 348.864 293, 356.947 292.564, 358.066 291.965 C 360.283 290.778, 360.754 285.154, 358.800 283.200 C 357.955 282.355, 352.234 282, 339.455 282 C 323.146 282, 321.142 282.185, 319.655 283.829 M 321.200 304.200 C 319.211 306.189, 319.774 310.728, 322.223 312.443 C 324.012 313.697, 327.602 314, 340.651 314 C 358.190 314, 360 313.485, 360 308.500 C 360 303.466, 358.273 303, 339.629 303 C 327.562 303, 322.040 303.360, 321.200 304.200 M 219.557 346.223 C 216.095 351.164, 218.660 360, 223.557 360 C 227.226 360, 230 356.652, 230 352.223 C 230 347.190, 227.672 344, 224 344 C 222.151 344, 220.554 344.799, 219.557 346.223 M 238.544 348.344 C 237.185 349.338, 236.880 350.387, 237.375 352.360 L 238.046 355.031 266.773 354.765 L 295.500 354.500 295.500 351.500 L 295.500 348.500 281 347.876 C 254.332 346.727, 240.547 346.880, 238.544 348.344 M 220.655 376.829 C 218.768 378.914, 218.390 386.992, 220.035 390.066 C 221.222 392.283, 226.846 392.754, 228.800 390.800 C 230.778 388.822, 230.324 378.603, 228.171 376.655 C 225.772 374.484, 222.713 374.555, 220.655 376.829 M 238.187 382.250 L 238.500 385.500 256.891 385.500 C 272.729 385.500, 275.423 385.276, 276.300 383.886 C 276.860 382.998, 277.036 381.536, 276.691 380.636 C 276.140 379.200, 273.724 379, 256.968 379 L 237.873 379 238.187 382.250 M 220.488 409.013 C 217.724 412.067, 217.991 419.765, 220.944 422.156 C 225.975 426.230, 230 423.158, 230 415.243 C 230 409.592, 228.297 407, 224.584 407 C 223.333 407, 221.490 407.906, 220.488 409.013 M 238.384 410.442 C 238.080 411.234, 237.987 412.697, 238.178 413.692 C 238.498 415.355, 240.166 415.522, 259.011 415.771 C 277.139 416.012, 279.635 415.852, 280.709 414.383 C 281.554 413.228, 281.620 412.158, 280.926 410.862 C 280.004 409.139, 278.399 409, 259.433 409 C 242.506 409, 238.841 409.251, 238.384 410.442" stroke="none" fill="black" fill-rule="evenodd"/>
</svg>